<?xml version="1.0" encoding="UTF-8" standalone="no"?><svg xmlns="http://www.w3.org/2000/svg" xmlns:xlink="http://www.w3.org/1999/xlink" contentScriptType="application/ecmascript" contentStyleType="text/css" height="1414px" preserveAspectRatio="none" style="width:479px;height:1414px;" version="1.1" viewBox="0 0 479 1414" width="479px" zoomAndPan="magnify"><defs><filter height="300%" id="f19sytt7kak4es" width="300%" x="-1" y="-1"><feGaussianBlur result="blurOut" stdDeviation="2.0"/><feColorMatrix in="blurOut" result="blurOut2" type="matrix" values="0 0 0 0 0 0 0 0 0 0 0 0 0 0 0 0 0 0 .4 0"/><feOffset dx="4.0" dy="4.0" in="blurOut2" result="blurOut3"/><feBlend in="SourceGraphic" in2="blurOut3" mode="normal"/></filter></defs><g><ellipse cx="237.5" cy="20" fill="#000000" filter="url(#f19sytt7kak4es)" rx="10" ry="10" style="stroke: none; stroke-width: 1.0;"/><rect fill="#FEFECE" filter="url(#f19sytt7kak4es)" height="33.9688" rx="12.5" ry="12.5" style="stroke: #A80036; stroke-width: 1.5;" width="87" x="194" y="110.8047"/><text fill="#000000" font-family="sans-serif" font-size="12" lengthAdjust="spacingAndGlyphs" textLength="67" x="204" y="131.9434">Load Plugin</text><polygon fill="#FEFECE" filter="url(#f19sytt7kak4es)" points="187.5,164.7734,287.5,164.7734,299.5,176.7734,287.5,188.7734,187.5,188.7734,175.5,176.7734,187.5,164.7734" style="stroke: #A80036; stroke-width: 1.5;"/><text fill="#000000" font-family="sans-serif" font-size="11" lengthAdjust="spacingAndGlyphs" textLength="100" x="187.5" y="180.5815">JavaScript plugin?</text><text fill="#000000" font-family="sans-serif" font-size="11" lengthAdjust="spacingAndGlyphs" textLength="21" x="154.5" y="174.1792">Yes</text><text fill="#000000" font-family="sans-serif" font-size="11" lengthAdjust="spacingAndGlyphs" textLength="15" x="299.5" y="174.1792">No</text><rect fill="#FEFECE" filter="url(#f19sytt7kak4es)" height="33.9688" rx="12.5" ry="12.5" style="stroke: #A80036; stroke-width: 1.5;" width="175" x="45" y="198.7734"/><text fill="#000000" font-family="sans-serif" font-size="12" lengthAdjust="spacingAndGlyphs" textLength="155" x="55" y="219.9121">Create JavaScript Runtime</text><rect fill="#FEFECE" filter="url(#f19sytt7kak4es)" height="33.9688" rx="12.5" ry="12.5" style="stroke: #A80036; stroke-width: 1.5;" width="205" x="240" y="198.7734"/><text fill="#000000" font-family="sans-serif" font-size="12" lengthAdjust="spacingAndGlyphs" textLength="185" x="250" y="219.9121">Create go-plugin gRPC Runtime</text><polygon fill="#FEFECE" filter="url(#f19sytt7kak4es)" points="237.5,238.7422,249.5,250.7422,237.5,262.7422,225.5,250.7422,237.5,238.7422" style="stroke: #A80036; stroke-width: 1.5;"/><rect fill="#FEFECE" filter="url(#f19sytt7kak4es)" height="33.9688" rx="12.5" ry="12.5" style="stroke: #A80036; stroke-width: 1.5;" width="162" x="156.5" y="331.1445"/><text fill="#000000" font-family="sans-serif" font-size="12" lengthAdjust="spacingAndGlyphs" textLength="142" x="166.5" y="352.2832">Register Action Handler</text><polygon fill="#FEFECE" filter="url(#f19sytt7kak4es)" points="204.5,282.7422,270.5,282.7422,282.5,294.7422,270.5,306.7422,204.5,306.7422,192.5,294.7422,204.5,282.7422" style="stroke: #A80036; stroke-width: 1.5;"/><text fill="#000000" font-family="sans-serif" font-size="11" lengthAdjust="spacingAndGlyphs" textLength="21" x="241.5" y="316.9526">Yes</text><text fill="#000000" font-family="sans-serif" font-size="11" lengthAdjust="spacingAndGlyphs" textLength="66" x="204.5" y="298.5503">Has Actions</text><polygon fill="#FEFECE" filter="url(#f19sytt7kak4es)" points="237.5,385.1133,249.5,397.1133,237.5,409.1133,225.5,397.1133,237.5,385.1133" style="stroke: #A80036; stroke-width: 1.5;"/><rect fill="#FEFECE" filter="url(#f19sytt7kak4es)" height="33.9688" rx="12.5" ry="12.5" style="stroke: #A80036; stroke-width: 1.5;" width="118" x="178.5" y="477.5156"/><text fill="#000000" font-family="sans-serif" font-size="12" lengthAdjust="spacingAndGlyphs" textLength="98" x="188.5" y="498.6543">Register Module</text><ellipse cx="237.5" cy="541.4844" fill="#FEFECE" filter="url(#f19sytt7kak4es)" rx="10" ry="10" style="stroke: #A80036; stroke-width: 1.5;"/><path d="M233.6719,537.2344 L235.4375,537.2344 L237.6719,543.1875 L239.9219,537.2344 L241.6875,537.2344 L241.6875,545.9844 L240.5313,545.9844 L240.5313,538.2969 L238.2656,544.2969 L237.0781,544.2969 L234.8281,538.2969 L234.8281,545.9844 L233.6719,545.9844 L233.6719,537.2344 Z "/><ellipse cx="237.5" cy="571.4844" fill="#FEFECE" filter="url(#f19sytt7kak4es)" rx="10" ry="10" style="stroke: #A80036; stroke-width: 1.5;"/><path d="M233.6719,567.2344 L235.4375,567.2344 L237.6719,573.1875 L239.9219,567.2344 L241.6875,567.2344 L241.6875,575.9844 L240.5313,575.9844 L240.5313,568.2969 L238.2656,574.2969 L237.0781,574.2969 L234.8281,568.2969 L234.8281,575.9844 L233.6719,575.9844 L233.6719,567.2344 Z "/><rect fill="#FEFECE" filter="url(#f19sytt7kak4es)" height="33.9688" rx="12.5" ry="12.5" style="stroke: #A80036; stroke-width: 1.5;" width="158" x="158.5" y="601.4844"/><text fill="#000000" font-family="sans-serif" font-size="12" lengthAdjust="spacingAndGlyphs" textLength="138" x="168.5" y="622.623">Call Navigation Handler</text><rect fill="#FEFECE" filter="url(#f19sytt7kak4es)" height="33.9688" rx="12.5" ry="12.5" style="stroke: #A80036; stroke-width: 1.5;" width="142" x="166.5" y="713.0659"/><text fill="#000000" font-family="sans-serif" font-size="12" lengthAdjust="spacingAndGlyphs" textLength="122" x="176.5" y="734.2046">Call Content Handler</text><polygon fill="#FEFECE" filter="url(#f19sytt7kak4es)" points="217,657.3555,258,657.3555,270,669.3555,258,681.3555,217,681.3555,205,669.3555,217,657.3555" style="stroke: #A80036; stroke-width: 1.5;"/><text fill="#000000" font-family="sans-serif" font-size="11" lengthAdjust="spacingAndGlyphs" textLength="108" x="241.5" y="691.5659">match ContentPath</text><text fill="#000000" font-family="sans-serif" font-size="11" lengthAdjust="spacingAndGlyphs" textLength="41" x="217" y="673.1636">Module</text><rect fill="#FEFECE" filter="url(#f19sytt7kak4es)" height="33.9688" rx="12.5" ry="12.5" style="stroke: #A80036; stroke-width: 1.5;" width="46" x="214.5" y="789.0347"/><text fill="#000000" font-family="sans-serif" font-size="12" lengthAdjust="spacingAndGlyphs" textLength="26" x="224.5" y="810.1733">Skip</text><polygon fill="#FEFECE" filter="url(#f19sytt7kak4es)" points="210.5,429.1133,264.5,429.1133,276.5,441.1133,264.5,453.1133,210.5,453.1133,198.5,441.1133,210.5,429.1133" style="stroke: #A80036; stroke-width: 1.5;"/><text fill="#000000" font-family="sans-serif" font-size="11" lengthAdjust="spacingAndGlyphs" textLength="21" x="241.5" y="463.3237">Yes</text><text fill="#000000" font-family="sans-serif" font-size="11" lengthAdjust="spacingAndGlyphs" textLength="54" x="210.5" y="444.9214">Is Module</text><rect fill="#FEFECE" filter="url(#f19sytt7kak4es)" height="33.9688" rx="12.5" ry="12.5" style="stroke: #A80036; stroke-width: 1.5;" width="108" x="183.5" y="865.0034"/><text fill="#000000" font-family="sans-serif" font-size="12" lengthAdjust="spacingAndGlyphs" textLength="88" x="193.5" y="886.1421">Register Plugin</text><rect fill="#FEFECE" filter="url(#f19sytt7kak4es)" height="33.9688" rx="12.5" ry="12.5" style="stroke: #A80036; stroke-width: 1.5;" width="48" x="213.5" y="918.9722"/><text fill="#000000" font-family="sans-serif" font-size="12" lengthAdjust="spacingAndGlyphs" textLength="28" x="223.5" y="940.1108">Start</text><ellipse cx="237.5" cy="982.9409" fill="#FEFECE" filter="url(#f19sytt7kak4es)" rx="10" ry="10" style="stroke: #A80036; stroke-width: 1.5;"/><path d="M238.3281,983.3315 Q238.7031,983.4722 239.0625,983.894 Q239.4219,984.3159 239.7969,985.0503 L241,987.4409 L239.7188,987.4409 L238.6094,985.1909 Q238.1719,984.3159 237.7656,984.0347 Q237.3594,983.7378 236.6563,983.7378 L235.3594,983.7378 L235.3594,987.4409 L234.1719,987.4409 L234.1719,978.6909 L236.8438,978.6909 Q238.3438,978.6909 239.0781,979.3159 Q239.8281,979.9409 239.8281,981.2065 Q239.8281,982.0347 239.4375,982.5815 Q239.0625,983.1284 238.3281,983.3315 Z M235.3594,979.6597 L235.3594,982.769 L236.8438,982.769 Q237.7031,982.769 238.1406,982.3784 Q238.5781,981.9722 238.5781,981.2065 Q238.5781,980.4409 238.1406,980.0503 Q237.7031,979.6597 236.8438,979.6597 L235.3594,979.6597 Z "/><ellipse cx="237.5" cy="1012.9409" fill="#FEFECE" filter="url(#f19sytt7kak4es)" rx="10" ry="10" style="stroke: #A80036; stroke-width: 1.5;"/><path d="M238.3281,1013.3315 Q238.7031,1013.4722 239.0625,1013.894 Q239.4219,1014.3159 239.7969,1015.0503 L241,1017.4409 L239.7188,1017.4409 L238.6094,1015.1909 Q238.1719,1014.3159 237.7656,1014.0347 Q237.3594,1013.7378 236.6563,1013.7378 L235.3594,1013.7378 L235.3594,1017.4409 L234.1719,1017.4409 L234.1719,1008.6909 L236.8438,1008.6909 Q238.3438,1008.6909 239.0781,1009.3159 Q239.8281,1009.9409 239.8281,1011.2065 Q239.8281,1012.0347 239.4375,1012.5815 Q239.0625,1013.1284 238.3281,1013.3315 Z M235.3594,1009.6597 L235.3594,1012.769 L236.8438,1012.769 Q237.7031,1012.769 238.1406,1012.3784 Q238.5781,1011.9722 238.5781,1011.2065 Q238.5781,1010.4409 238.1406,1010.0503 Q237.7031,1009.6597 236.8438,1009.6597 L235.3594,1009.6597 Z "/><rect fill="#FEFECE" filter="url(#f19sytt7kak4es)" height="33.9688" rx="12.5" ry="12.5" style="stroke: #A80036; stroke-width: 1.5;" width="79" x="198" y="1098.6514"/><text fill="#000000" font-family="sans-serif" font-size="12" lengthAdjust="spacingAndGlyphs" textLength="59" x="208" y="1119.79">Get Plugin</text><rect fill="#FEFECE" filter="url(#f19sytt7kak4es)" height="33.9688" rx="12.5" ry="12.5" style="stroke: #A80036; stroke-width: 1.5;" width="224" x="125.5" y="1152.6201"/><text fill="#000000" font-family="sans-serif" font-size="12" lengthAdjust="spacingAndGlyphs" textLength="204" x="135.5" y="1173.7588">Check Metadata for Request Type</text><polygon fill="#FEFECE" filter="url(#f19sytt7kak4es)" points="187,1206.5889,288,1206.5889,300,1218.5889,288,1230.5889,187,1230.5889,175,1218.5889,187,1206.5889" style="stroke: #A80036; stroke-width: 1.5;"/><text fill="#000000" font-family="sans-serif" font-size="11" lengthAdjust="spacingAndGlyphs" textLength="101" x="187" y="1222.397">Supports Request</text><text fill="#000000" font-family="sans-serif" font-size="11" lengthAdjust="spacingAndGlyphs" textLength="21" x="154" y="1215.9946">yes</text><text fill="#000000" font-family="sans-serif" font-size="11" lengthAdjust="spacingAndGlyphs" textLength="15" x="300" y="1215.9946">No</text><rect fill="#FEFECE" filter="url(#f19sytt7kak4es)" height="33.9688" rx="12.5" ry="12.5" style="stroke: #A80036; stroke-width: 1.5;" width="145" x="92.5" y="1240.5889"/><text fill="#000000" font-family="sans-serif" font-size="12" lengthAdjust="spacingAndGlyphs" textLength="125" x="102.5" y="1261.7275">Call Request Handler</text><rect fill="#FEFECE" filter="url(#f19sytt7kak4es)" height="33.9688" rx="12.5" ry="12.5" style="stroke: #A80036; stroke-width: 1.5;" width="130" x="100" y="1294.5576"/><text fill="#000000" font-family="sans-serif" font-size="12" lengthAdjust="spacingAndGlyphs" textLength="110" x="110" y="1315.6963">Content Response</text><rect fill="#FEFECE" filter="url(#f19sytt7kak4es)" height="33.9688" rx="12.5" ry="12.5" style="stroke: #A80036; stroke-width: 1.5;" width="46" x="287" y="1240.5889"/><text fill="#000000" font-family="sans-serif" font-size="12" lengthAdjust="spacingAndGlyphs" textLength="26" x="297" y="1261.7275">Skip</text><polygon fill="#FEFECE" filter="url(#f19sytt7kak4es)" points="237.5,1334.5264,249.5,1346.5264,237.5,1358.5264,225.5,1346.5264,237.5,1334.5264" style="stroke: #A80036; stroke-width: 1.5;"/><polygon fill="#FEFECE" filter="url(#f19sytt7kak4es)" points="199,1042.9409,276,1042.9409,288,1054.9409,276,1066.9409,199,1066.9409,187,1054.9409,199,1042.9409" style="stroke: #A80036; stroke-width: 1.5;"/><text fill="#000000" font-family="sans-serif" font-size="11" lengthAdjust="spacingAndGlyphs" textLength="59" x="241.5" y="1077.1514">for plugins</text><text fill="#000000" font-family="sans-serif" font-size="11" lengthAdjust="spacingAndGlyphs" textLength="77" x="199" y="1058.749">Plugin Runner</text><polygon fill="#FEFECE" filter="url(#f19sytt7kak4es)" points="191,50,284,50,296,62,284,74,191,74,179,62,191,50" style="stroke: #A80036; stroke-width: 1.5;"/><text fill="#000000" font-family="sans-serif" font-size="11" lengthAdjust="spacingAndGlyphs" textLength="70" x="241.5" y="84.2104">found plugin</text><text fill="#000000" font-family="sans-serif" font-size="11" lengthAdjust="spacingAndGlyphs" textLength="93" x="191" y="65.8081">Discover Plugins</text><ellipse cx="24" cy="109" fill="#FFFFFF" filter="url(#f19sytt7kak4es)" rx="11" ry="11" style="stroke: #000000; stroke-width: 1.0;"/><ellipse cx="24" cy="109" fill="#000000" rx="6" ry="6" style="stroke: #7F7F7F; stroke-width: 1.0;"/><line style="stroke: #A80036; stroke-width: 1.5;" x1="175.5" x2="132.5" y1="176.7734" y2="176.7734"/><line style="stroke: #A80036; stroke-width: 1.5;" x1="132.5" x2="132.5" y1="176.7734" y2="198.7734"/><polygon fill="#A80036" points="128.5,188.7734,132.5,198.7734,136.5,188.7734,132.5,192.7734" style="stroke: #A80036; stroke-width: 1.0;"/><line style="stroke: #A80036; stroke-width: 1.5;" x1="299.5" x2="342.5" y1="176.7734" y2="176.7734"/><line style="stroke: #A80036; stroke-width: 1.5;" x1="342.5" x2="342.5" y1="176.7734" y2="198.7734"/><polygon fill="#A80036" points="338.5,188.7734,342.5,198.7734,346.5,188.7734,342.5,192.7734" style="stroke: #A80036; stroke-width: 1.0;"/><line style="stroke: #A80036; stroke-width: 1.5;" x1="132.5" x2="132.5" y1="232.7422" y2="250.7422"/><line style="stroke: #A80036; stroke-width: 1.5;" x1="132.5" x2="225.5" y1="250.7422" y2="250.7422"/><polygon fill="#A80036" points="215.5,246.7422,225.5,250.7422,215.5,254.7422,219.5,250.7422" style="stroke: #A80036; stroke-width: 1.0;"/><line style="stroke: #A80036; stroke-width: 1.5;" x1="342.5" x2="342.5" y1="232.7422" y2="250.7422"/><line style="stroke: #A80036; stroke-width: 1.5;" x1="342.5" x2="249.5" y1="250.7422" y2="250.7422"/><polygon fill="#A80036" points="259.5,246.7422,249.5,250.7422,259.5,254.7422,255.5,250.7422" style="stroke: #A80036; stroke-width: 1.0;"/><line style="stroke: #A80036; stroke-width: 1.5;" x1="237.5" x2="237.5" y1="144.7734" y2="164.7734"/><polygon fill="#A80036" points="233.5,154.7734,237.5,164.7734,241.5,154.7734,237.5,158.7734" style="stroke: #A80036; stroke-width: 1.0;"/><line style="stroke: #A80036; stroke-width: 1.5;" x1="237.5" x2="237.5" y1="306.7422" y2="331.1445"/><polygon fill="#A80036" points="233.5,321.1445,237.5,331.1445,241.5,321.1445,237.5,325.1445" style="stroke: #A80036; stroke-width: 1.0;"/><line style="stroke: #A80036; stroke-width: 1.5;" x1="282.5" x2="328.5" y1="294.7422" y2="294.7422"/><polygon fill="#A80036" points="324.5,338.1289,328.5,348.1289,332.5,338.1289,328.5,342.1289" style="stroke: #A80036; stroke-width: 1.5;"/><line style="stroke: #A80036; stroke-width: 1.5;" x1="328.5" x2="328.5" y1="294.7422" y2="397.1133"/><line style="stroke: #A80036; stroke-width: 1.5;" x1="328.5" x2="249.5" y1="397.1133" y2="397.1133"/><polygon fill="#A80036" points="259.5,393.1133,249.5,397.1133,259.5,401.1133,255.5,397.1133" style="stroke: #A80036; stroke-width: 1.0;"/><line style="stroke: #A80036; stroke-width: 1.5;" x1="237.5" x2="237.5" y1="365.1133" y2="385.1133"/><polygon fill="#A80036" points="233.5,375.1133,237.5,385.1133,241.5,375.1133,237.5,379.1133" style="stroke: #A80036; stroke-width: 1.0;"/><line style="stroke: #A80036; stroke-width: 1.5;" x1="237.5" x2="237.5" y1="262.7422" y2="282.7422"/><polygon fill="#A80036" points="233.5,272.7422,237.5,282.7422,241.5,272.7422,237.5,276.7422" style="stroke: #A80036; stroke-width: 1.0;"/><line style="stroke: #A80036; stroke-width: 1.5;" x1="237.5" x2="237.5" y1="511.4844" y2="531.4844"/><polygon fill="#A80036" points="233.5,521.4844,237.5,531.4844,241.5,521.4844,237.5,525.4844" style="stroke: #A80036; stroke-width: 1.0;"/><line style="stroke: #A80036; stroke-width: 1.5;" x1="237.5" x2="237.5" y1="581.4844" y2="601.4844"/><polygon fill="#A80036" points="233.5,591.4844,237.5,601.4844,241.5,591.4844,237.5,595.4844" style="stroke: #A80036; stroke-width: 1.0;"/><line style="stroke: #A80036; stroke-width: 1.5;" x1="237.5" x2="237.5" y1="681.3555" y2="713.0659"/><polygon fill="#A80036" points="233.5,703.0659,237.5,713.0659,241.5,703.0659,237.5,707.0659" style="stroke: #A80036; stroke-width: 1.0;"/><line style="stroke: #A80036; stroke-width: 1.5;" x1="237.5" x2="237.5" y1="747.0347" y2="757.0347"/><line style="stroke: #A80036; stroke-width: 1.5;" x1="237.5" x2="320.5" y1="757.0347" y2="757.0347"/><polygon fill="#A80036" points="316.5,721.6479,320.5,711.6479,324.5,721.6479,320.5,717.6479" style="stroke: #A80036; stroke-width: 1.5;"/><line style="stroke: #A80036; stroke-width: 1.5;" x1="320.5" x2="320.5" y1="669.3555" y2="757.0347"/><line style="stroke: #A80036; stroke-width: 1.5;" x1="320.5" x2="270" y1="669.3555" y2="669.3555"/><polygon fill="#A80036" points="280,665.3555,270,669.3555,280,673.3555,276,669.3555" style="stroke: #A80036; stroke-width: 1.0;"/><line style="stroke: #A80036; stroke-width: 1.5;" x1="205" x2="154.5" y1="669.3555" y2="669.3555"/><polygon fill="#A80036" points="150.5,707.6479,154.5,717.6479,158.5,707.6479,154.5,711.6479" style="stroke: #A80036; stroke-width: 1.5;"/><line style="stroke: #A80036; stroke-width: 1.5;" x1="154.5" x2="154.5" y1="669.3555" y2="769.0347"/><line style="stroke: #A80036; stroke-width: 1.5;" x1="154.5" x2="237.5" y1="769.0347" y2="769.0347"/><line style="stroke: #A80036; stroke-width: 1.5;" x1="237.5" x2="237.5" y1="769.0347" y2="789.0347"/><polygon fill="#A80036" points="233.5,779.0347,237.5,789.0347,241.5,779.0347,237.5,783.0347" style="stroke: #A80036; stroke-width: 1.0;"/><line style="stroke: #A80036; stroke-width: 1.5;" x1="237.5" x2="237.5" y1="635.4531" y2="657.3555"/><polygon fill="#A80036" points="233.5,647.3555,237.5,657.3555,241.5,647.3555,237.5,651.3555" style="stroke: #A80036; stroke-width: 1.0;"/><line style="stroke: #A80036; stroke-width: 1.5;" x1="237.5" x2="237.5" y1="453.1133" y2="477.5156"/><polygon fill="#A80036" points="233.5,467.5156,237.5,477.5156,241.5,467.5156,237.5,471.5156" style="stroke: #A80036; stroke-width: 1.0;"/><line style="stroke: #A80036; stroke-width: 1.5;" x1="276.5" x2="330.5" y1="441.1133" y2="441.1133"/><polygon fill="#A80036" points="326.5,627.3555,330.5,637.3555,334.5,627.3555,330.5,631.3555" style="stroke: #A80036; stroke-width: 1.5;"/><line style="stroke: #A80036; stroke-width: 1.5;" x1="330.5" x2="330.5" y1="441.1133" y2="845.0034"/><line style="stroke: #A80036; stroke-width: 1.5;" x1="330.5" x2="237.5" y1="845.0034" y2="845.0034"/><line style="stroke: #A80036; stroke-width: 1.5;" x1="237.5" x2="237.5" y1="845.0034" y2="865.0034"/><polygon fill="#A80036" points="233.5,855.0034,237.5,865.0034,241.5,855.0034,237.5,859.0034" style="stroke: #A80036; stroke-width: 1.0;"/><line style="stroke: #A80036; stroke-width: 1.5;" x1="237.5" x2="237.5" y1="409.1133" y2="429.1133"/><polygon fill="#A80036" points="233.5,419.1133,237.5,429.1133,241.5,419.1133,237.5,423.1133" style="stroke: #A80036; stroke-width: 1.0;"/><line style="stroke: #A80036; stroke-width: 1.5;" x1="237.5" x2="237.5" y1="898.9722" y2="918.9722"/><polygon fill="#A80036" points="233.5,908.9722,237.5,918.9722,241.5,908.9722,237.5,912.9722" style="stroke: #A80036; stroke-width: 1.0;"/><line style="stroke: #A80036; stroke-width: 1.5;" x1="237.5" x2="237.5" y1="952.9409" y2="972.9409"/><polygon fill="#A80036" points="233.5,962.9409,237.5,972.9409,241.5,962.9409,237.5,966.9409" style="stroke: #A80036; stroke-width: 1.0;"/><line style="stroke: #A80036; stroke-width: 1.5;" x1="237.5" x2="237.5" y1="1132.6201" y2="1152.6201"/><polygon fill="#A80036" points="233.5,1142.6201,237.5,1152.6201,241.5,1142.6201,237.5,1146.6201" style="stroke: #A80036; stroke-width: 1.0;"/><line style="stroke: #A80036; stroke-width: 1.5;" x1="165" x2="165" y1="1274.5576" y2="1294.5576"/><polygon fill="#A80036" points="161,1284.5576,165,1294.5576,169,1284.5576,165,1288.5576" style="stroke: #A80036; stroke-width: 1.0;"/><line style="stroke: #A80036; stroke-width: 1.5;" x1="175" x2="165" y1="1218.5889" y2="1218.5889"/><line style="stroke: #A80036; stroke-width: 1.5;" x1="165" x2="165" y1="1218.5889" y2="1240.5889"/><polygon fill="#A80036" points="161,1230.5889,165,1240.5889,169,1230.5889,165,1234.5889" style="stroke: #A80036; stroke-width: 1.0;"/><line style="stroke: #A80036; stroke-width: 1.5;" x1="300" x2="310" y1="1218.5889" y2="1218.5889"/><line style="stroke: #A80036; stroke-width: 1.5;" x1="310" x2="310" y1="1218.5889" y2="1240.5889"/><polygon fill="#A80036" points="306,1230.5889,310,1240.5889,314,1230.5889,310,1234.5889" style="stroke: #A80036; stroke-width: 1.0;"/><line style="stroke: #A80036; stroke-width: 1.5;" x1="165" x2="165" y1="1328.5264" y2="1346.5264"/><line style="stroke: #A80036; stroke-width: 1.5;" x1="165" x2="225.5" y1="1346.5264" y2="1346.5264"/><polygon fill="#A80036" points="215.5,1342.5264,225.5,1346.5264,215.5,1350.5264,219.5,1346.5264" style="stroke: #A80036; stroke-width: 1.0;"/><line style="stroke: #A80036; stroke-width: 1.5;" x1="310" x2="310" y1="1274.5576" y2="1346.5264"/><line style="stroke: #A80036; stroke-width: 1.5;" x1="310" x2="249.5" y1="1346.5264" y2="1346.5264"/><polygon fill="#A80036" points="259.5,1342.5264,249.5,1346.5264,259.5,1350.5264,255.5,1346.5264" style="stroke: #A80036; stroke-width: 1.0;"/><line style="stroke: #A80036; stroke-width: 1.5;" x1="237.5" x2="237.5" y1="1186.5889" y2="1206.5889"/><polygon fill="#A80036" points="233.5,1196.5889,237.5,1206.5889,241.5,1196.5889,237.5,1200.5889" style="stroke: #A80036; stroke-width: 1.0;"/><line style="stroke: #A80036; stroke-width: 1.5;" x1="237.5" x2="237.5" y1="1066.9409" y2="1098.6514"/><polygon fill="#A80036" points="233.5,1088.6514,237.5,1098.6514,241.5,1088.6514,237.5,1092.6514" style="stroke: #A80036; stroke-width: 1.0;"/><line style="stroke: #A80036; stroke-width: 1.5;" x1="237.5" x2="237.5" y1="1358.5264" y2="1368.5264"/><line style="stroke: #A80036; stroke-width: 1.5;" x1="237.5" x2="361.5" y1="1368.5264" y2="1368.5264"/><polygon fill="#A80036" points="357.5,1212.6865,361.5,1202.6865,365.5,1212.6865,361.5,1208.6865" style="stroke: #A80036; stroke-width: 1.5;"/><line style="stroke: #A80036; stroke-width: 1.5;" x1="361.5" x2="361.5" y1="1054.9409" y2="1368.5264"/><line style="stroke: #A80036; stroke-width: 1.5;" x1="361.5" x2="288" y1="1054.9409" y2="1054.9409"/><polygon fill="#A80036" points="298,1050.9409,288,1054.9409,298,1058.9409,294,1054.9409" style="stroke: #A80036; stroke-width: 1.0;"/><line style="stroke: #A80036; stroke-width: 1.5;" x1="187" x2="70.5" y1="1054.9409" y2="1054.9409"/><polygon fill="#A80036" points="66.5,1198.6865,70.5,1208.6865,74.5,1198.6865,70.5,1202.6865" style="stroke: #A80036; stroke-width: 1.5;"/><line style="stroke: #A80036; stroke-width: 1.5;" x1="70.5" x2="70.5" y1="1054.9409" y2="1380.5264"/><line style="stroke: #A80036; stroke-width: 1.5;" x1="70.5" x2="467" y1="1380.5264" y2="1380.5264"/><line style="stroke: #A80036; stroke-width: 1.5;" x1="467" x2="467" y1="62" y2="1380.5264"/><line style="stroke: #A80036; stroke-width: 1.5;" x1="467" x2="296" y1="62" y2="62"/><polygon fill="#A80036" points="306,58,296,62,306,66,302,62" style="stroke: #A80036; stroke-width: 1.0;"/><line style="stroke: #A80036; stroke-width: 1.5;" x1="237.5" x2="237.5" y1="1022.9409" y2="1042.9409"/><polygon fill="#A80036" points="233.5,1032.9409,237.5,1042.9409,241.5,1032.9409,237.5,1036.9409" style="stroke: #A80036; stroke-width: 1.0;"/><line style="stroke: #A80036; stroke-width: 1.5;" x1="237.5" x2="237.5" y1="74" y2="110.8047"/><polygon fill="#A80036" points="233.5,100.8047,237.5,110.8047,241.5,100.8047,237.5,104.8047" style="stroke: #A80036; stroke-width: 1.0;"/><line style="stroke: #A80036; stroke-width: 1.5;" x1="179" x2="24" y1="62" y2="62"/><line style="stroke: #A80036; stroke-width: 1.5;" x1="24" x2="24" y1="62" y2="98"/><polygon fill="#A80036" points="20,88,24,98,28,88,24,92" style="stroke: #A80036; stroke-width: 1.0;"/><line style="stroke: #A80036; stroke-width: 1.5;" x1="237.5" x2="237.5" y1="30" y2="50"/><polygon fill="#A80036" points="233.5,40,237.5,50,241.5,40,237.5,44" style="stroke: #A80036; stroke-width: 1.0;"/><!--MD5=[08687441ae299b778bbfb1e5ec1246ca]
@startuml
start
while (Discover Plugins) is (found plugin)
    :Load Plugin;
    if (JavaScript plugin?) then (Yes)
    :Create JavaScript Runtime;
    else (No)
        :Create go-plugin gRPC Runtime;
    endif
    if (Has Actions) then (Yes)
        :Register Action Handler;
    endif
    if (Is Module) then (Yes)
        :Register Module;
        (M)
        detach
        (M)
        :Call Navigation Handler;
        while (Module) is (match ContentPath)
            :Call Content Handler;
        endwhile
        :Skip;
        detach
    endif
    :Register Plugin;

    :Start;
    (R)
    detach
    (R)
    while (Plugin Runner) is (for plugins)
        :Get Plugin;
        :Check Metadata for Request Type;
        if (Supports Request) then (yes)
            :Call Request Handler;
            :Content Response;
        else (No)
            :Skip;
        endif
    endwhile
endwhile
stop
@enduml

PlantUML version 1.2020.16beta3(Unknown compile time)
(GPL source distribution)
Java Runtime: Java(TM) SE Runtime Environment
JVM: Java HotSpot(TM) 64-Bit Server VM
Default Encoding: UTF-8
Language: en
Country: US
--></g></svg>