<?xml version="1.0" encoding="UTF-8" standalone="no"?><svg xmlns="http://www.w3.org/2000/svg" xmlns:xlink="http://www.w3.org/1999/xlink" contentScriptType="application/ecmascript" contentStyleType="text/css" height="1237px" preserveAspectRatio="none" style="width:1214px;height:1237px;" version="1.1" viewBox="0 0 1214 1237" width="1214px" zoomAndPan="magnify"><defs><filter height="300%" id="fajwxzinpg77e" width="300%" x="-1" y="-1"><feGaussianBlur result="blurOut" stdDeviation="2.0"/><feColorMatrix in="blurOut" result="blurOut2" type="matrix" values="0 0 0 0 0 0 0 0 0 0 0 0 0 0 0 0 0 0 .4 0"/><feOffset dx="4.0" dy="4.0" in="blurOut2" result="blurOut3"/><feBlend in="SourceGraphic" in2="blurOut3" mode="normal"/></filter></defs><g><!--MD5=[b4e09d266be9964199f2622adcc056fa]
cluster Backend--><polygon fill="#FFFFFF" filter="url(#fajwxzinpg77e)" points="16,6,90,6,97,28.2969,1192,28.2969,1192,1225,16,1225,16,6" style="stroke: #000000; stroke-width: 1.5;"/><line style="stroke: #000000; stroke-width: 1.5;" x1="16" x2="97" y1="28.2969" y2="28.2969"/><text fill="#000000" font-family="sans-serif" font-size="14" font-weight="bold" lengthAdjust="spacingAndGlyphs" textLength="68" x="20" y="20.9951">Backend</text><!--MD5=[b81437ee3f294028d79e344b0f63be57]
cluster ObjectStore--><path d="M627,841 C627,831 897.5,831 897.5,831 C897.5,831 1168,831 1168,841 L1168,1157 C1168,1167 897.5,1167 897.5,1167 C897.5,1167 627,1167 627,1157 L627,841 " fill="#FFFFFF" filter="url(#fajwxzinpg77e)" style="stroke: #000000; stroke-width: 1.5;"/><path d="M627,841 C627,851 897.5,851 897.5,851 C897.5,851 1168,851 1168,841 " fill="none" style="stroke: #000000; stroke-width: 1.5;"/><text fill="#000000" font-family="sans-serif" font-size="14" font-weight="bold" lengthAdjust="spacingAndGlyphs" textLength="97" x="849" y="865.9951">ObjectStore</text><!--MD5=[b9fe149db68a553ea5ee282a62e2a2cd]
cluster Managers--><polygon fill="#FFFFFF" filter="url(#fajwxzinpg77e)" points="40,182,175,182,182,204.2969,702,204.2969,702,515,40,515,40,182" style="stroke: #000000; stroke-width: 1.5;"/><line style="stroke: #000000; stroke-width: 1.5;" x1="40" x2="182" y1="204.2969" y2="204.2969"/><text fill="#000000" font-family="sans-serif" font-size="14" font-weight="bold" lengthAdjust="spacingAndGlyphs" textLength="129" x="44" y="196.9951">State Managers</text><!--MD5=[b81d475bff8382f6de843883a7fc380d]
cluster Modules--><polygon fill="#FFFFFF" filter="url(#fajwxzinpg77e)" points="48,608,121,608,128,630.2969,595,630.2969,595,1193,48,1193,48,608" style="stroke: #000000; stroke-width: 1.5;"/><line style="stroke: #000000; stroke-width: 1.5;" x1="48" x2="128" y1="630.2969" y2="630.2969"/><text fill="#000000" font-family="sans-serif" font-size="14" font-weight="bold" lengthAdjust="spacingAndGlyphs" textLength="67" x="52" y="622.9951">Modules</text><!--MD5=[ef93030427041cf395e60b3bd13f8ff4]
cluster Response--><polygon fill="#FFFFFF" filter="url(#fajwxzinpg77e)" points="185,734,268,734,275,756.2969,353,756.2969,353,1161,185,1161,185,734" style="stroke: #000000; stroke-width: 1.5;"/><line style="stroke: #000000; stroke-width: 1.5;" x1="185" x2="275" y1="756.2969" y2="756.2969"/><text fill="#000000" font-family="sans-serif" font-size="14" font-weight="bold" lengthAdjust="spacingAndGlyphs" textLength="77" x="189" y="748.9951">Response</text><!--MD5=[90a21e3161e9d230f693c593a84a4b0c]
cluster WebHandlers--><polygon fill="#FFFFFF" filter="url(#fajwxzinpg77e)" points="224,49,335,49,342,71.2969,557,71.2969,557,158,224,158,224,49" style="stroke: #000000; stroke-width: 1.5;"/><line style="stroke: #000000; stroke-width: 1.5;" x1="224" x2="342" y1="71.2969" y2="71.2969"/><text fill="#000000" font-family="sans-serif" font-size="14" font-weight="bold" lengthAdjust="spacingAndGlyphs" textLength="105" x="228" y="63.9951">WebHandlers</text><path d="M32,559 L32,584.1328 L296,584.1328 L296,569 L286,559 L32,559 " fill="#FBFB77" filter="url(#fajwxzinpg77e)" style="stroke: #A80036; stroke-width: 1.0;"/><path d="M286,559 L286,569 L296,569 L286,559 " fill="#FBFB77" style="stroke: #A80036; stroke-width: 1.0;"/><text fill="#000000" font-family="sans-serif" font-size="13" lengthAdjust="spacingAndGlyphs" textLength="243" x="38" y="576.0669">These are the default views of Octant</text><!--MD5=[0ba5ee7700168656dc1b457c6fe9fdac]
entity Client--><ellipse cx="980" cy="1122" fill="#FEFECE" filter="url(#fajwxzinpg77e)" rx="8" ry="8" style="stroke: #A80036; stroke-width: 2.0;"/><text fill="#000000" font-family="sans-serif" font-size="14" lengthAdjust="spacingAndGlyphs" textLength="43" x="958.5" y="1151.9951">Client</text><!--MD5=[372e6576a6279c25346b1d34359dbeee]
entity Direct--><rect fill="#FEFECE" filter="url(#fajwxzinpg77e)" height="46.2969" style="stroke: #A80036; stroke-width: 1.5;" width="85" x="1066.5" y="881"/><rect fill="#FEFECE" height="10" style="stroke: #A80036; stroke-width: 1.5;" width="15" x="1131.5" y="886"/><rect fill="#FEFECE" height="2" style="stroke: #A80036; stroke-width: 1.5;" width="4" x="1129.5" y="888"/><rect fill="#FEFECE" height="2" style="stroke: #A80036; stroke-width: 1.5;" width="4" x="1129.5" y="892"/><text fill="#000000" font-family="sans-serif" font-size="14" lengthAdjust="spacingAndGlyphs" textLength="45" x="1081.5" y="913.9951">Direct</text><!--MD5=[19fa89f04bed664c354e5c00ebc27d05]
entity Informer--><rect fill="#FEFECE" filter="url(#fajwxzinpg77e)" height="46.2969" style="stroke: #A80036; stroke-width: 1.5;" width="103" x="928.5" y="881"/><rect fill="#FEFECE" height="10" style="stroke: #A80036; stroke-width: 1.5;" width="15" x="1011.5" y="886"/><rect fill="#FEFECE" height="2" style="stroke: #A80036; stroke-width: 1.5;" width="4" x="1009.5" y="888"/><rect fill="#FEFECE" height="2" style="stroke: #A80036; stroke-width: 1.5;" width="4" x="1009.5" y="892"/><text fill="#000000" font-family="sans-serif" font-size="14" lengthAdjust="spacingAndGlyphs" textLength="63" x="943.5" y="913.9951">Informer</text><path d="M643,884 L643,924.2656 L893,924.2656 L893,894 L883,884 L643,884 " fill="#FBFB77" filter="url(#fajwxzinpg77e)" style="stroke: #A80036; stroke-width: 1.0;"/><path d="M883,884 L883,894 L893,894 L883,884 " fill="#FBFB77" style="stroke: #A80036; stroke-width: 1.0;"/><text fill="#000000" font-family="sans-serif" font-size="13" lengthAdjust="spacingAndGlyphs" textLength="186" x="649" y="901.0669">Uses informers but falls back</text><text fill="#000000" font-family="sans-serif" font-size="13" lengthAdjust="spacingAndGlyphs" textLength="147" x="649" y="916.1997">when unable to access</text><text fill="#000000" font-family="sans-serif" font-size="13" font-style="italic" lengthAdjust="spacingAndGlyphs" textLength="41" x="800" y="916.1997">Watch</text><text fill="#000000" font-family="sans-serif" font-size="13" lengthAdjust="spacingAndGlyphs" textLength="33" x="845" y="916.1997">verb.</text><!--MD5=[f5aed77d845357d8aa4d8752d2a0a8ef]
entity Handlers--><ellipse cx="496" cy="246" fill="#FEFECE" filter="url(#fajwxzinpg77e)" rx="8" ry="8" style="stroke: #A80036; stroke-width: 2.0;"/><text fill="#000000" font-family="sans-serif" font-size="14" lengthAdjust="spacingAndGlyphs" textLength="131" x="430.5" y="275.9951">WS/HTTP Handlers</text><!--MD5=[52e5e8b9266ec69bd0c3c9abc22ab6a5]
entity SetState--><ellipse cx="231" cy="364" fill="#FEFECE" filter="url(#fajwxzinpg77e)" rx="8" ry="8" style="stroke: #A80036; stroke-width: 2.0;"/><text fill="#000000" font-family="sans-serif" font-size="14" lengthAdjust="spacingAndGlyphs" textLength="65" x="198.5" y="393.9951">SetState</text><!--MD5=[db9cfb9ec9c4ba9456c5b8fc8cf53c40]
entity GetState--><ellipse cx="645" cy="246" fill="#FEFECE" filter="url(#fajwxzinpg77e)" rx="8" ry="8" style="stroke: #A80036; stroke-width: 2.0;"/><text fill="#000000" font-family="sans-serif" font-size="14" lengthAdjust="spacingAndGlyphs" textLength="67" x="611.5" y="275.9951">GetState</text><!--MD5=[a096b82a31643400ba33981c0f5b0661]
entity Action--><rect fill="#FEFECE" filter="url(#fajwxzinpg77e)" height="46.2969" style="stroke: #A80036; stroke-width: 1.5;" width="87" x="56.5" y="223"/><rect fill="#FEFECE" height="10" style="stroke: #A80036; stroke-width: 1.5;" width="15" x="123.5" y="228"/><rect fill="#FEFECE" height="2" style="stroke: #A80036; stroke-width: 1.5;" width="4" x="121.5" y="230"/><rect fill="#FEFECE" height="2" style="stroke: #A80036; stroke-width: 1.5;" width="4" x="121.5" y="234"/><text fill="#000000" font-family="sans-serif" font-size="14" lengthAdjust="spacingAndGlyphs" textLength="47" x="71.5" y="255.9951">Action</text><!--MD5=[336b9fd48f5e9f3ed29f596a82d3af84]
entity Plugin--><rect fill="#FEFECE" filter="url(#fajwxzinpg77e)" height="46.2969" style="stroke: #A80036; stroke-width: 1.5;" width="83" x="178.5" y="223"/><rect fill="#FEFECE" height="10" style="stroke: #A80036; stroke-width: 1.5;" width="15" x="241.5" y="228"/><rect fill="#FEFECE" height="2" style="stroke: #A80036; stroke-width: 1.5;" width="4" x="239.5" y="230"/><rect fill="#FEFECE" height="2" style="stroke: #A80036; stroke-width: 1.5;" width="4" x="239.5" y="234"/><text fill="#000000" font-family="sans-serif" font-size="14" lengthAdjust="spacingAndGlyphs" textLength="43" x="193.5" y="255.9951">Plugin</text><!--MD5=[32a6d3b508021f5875dd65aaa7b12f72]
entity Module--><rect fill="#FEFECE" filter="url(#fajwxzinpg77e)" height="46.2969" style="stroke: #A80036; stroke-width: 1.5;" width="91" x="296.5" y="223"/><rect fill="#FEFECE" height="10" style="stroke: #A80036; stroke-width: 1.5;" width="15" x="367.5" y="228"/><rect fill="#FEFECE" height="2" style="stroke: #A80036; stroke-width: 1.5;" width="4" x="365.5" y="230"/><rect fill="#FEFECE" height="2" style="stroke: #A80036; stroke-width: 1.5;" width="4" x="365.5" y="234"/><text fill="#000000" font-family="sans-serif" font-size="14" lengthAdjust="spacingAndGlyphs" textLength="51" x="311.5" y="255.9951">Module</text><!--MD5=[823f824e164d38a3050348834b6b996c]
entity Content--><rect fill="#FEFECE" filter="url(#fajwxzinpg77e)" height="46.2969" style="stroke: #A80036; stroke-width: 1.5;" width="100" x="56" y="341"/><rect fill="#FEFECE" height="10" style="stroke: #A80036; stroke-width: 1.5;" width="15" x="136" y="346"/><rect fill="#FEFECE" height="2" style="stroke: #A80036; stroke-width: 1.5;" width="4" x="134" y="348"/><rect fill="#FEFECE" height="2" style="stroke: #A80036; stroke-width: 1.5;" width="4" x="134" y="352"/><text fill="#000000" font-family="sans-serif" font-size="14" lengthAdjust="spacingAndGlyphs" textLength="60" x="71" y="373.9951">Content</text><!--MD5=[fcab5d0504bee42767ad1fe61abfca73]
entity Namespace--><rect fill="#FEFECE" filter="url(#fajwxzinpg77e)" height="46.2969" style="stroke: #A80036; stroke-width: 1.5;" width="123" x="306.5" y="341"/><rect fill="#FEFECE" height="10" style="stroke: #A80036; stroke-width: 1.5;" width="15" x="409.5" y="346"/><rect fill="#FEFECE" height="2" style="stroke: #A80036; stroke-width: 1.5;" width="4" x="407.5" y="348"/><rect fill="#FEFECE" height="2" style="stroke: #A80036; stroke-width: 1.5;" width="4" x="407.5" y="352"/><text fill="#000000" font-family="sans-serif" font-size="14" lengthAdjust="spacingAndGlyphs" textLength="83" x="321.5" y="373.9951">Namespace</text><!--MD5=[d04648e85a9b10e4576b2636e86a7d55]
entity Filter--><rect fill="#FEFECE" filter="url(#fajwxzinpg77e)" height="46.2969" style="stroke: #A80036; stroke-width: 1.5;" width="78" x="465" y="341"/><rect fill="#FEFECE" height="10" style="stroke: #A80036; stroke-width: 1.5;" width="15" x="523" y="346"/><rect fill="#FEFECE" height="2" style="stroke: #A80036; stroke-width: 1.5;" width="4" x="521" y="348"/><rect fill="#FEFECE" height="2" style="stroke: #A80036; stroke-width: 1.5;" width="4" x="521" y="352"/><text fill="#000000" font-family="sans-serif" font-size="14" lengthAdjust="spacingAndGlyphs" textLength="38" x="480" y="373.9951">Filter</text><!--MD5=[f86d083f7526329011f4b6f057bca77a]
entity Terminal--><rect fill="#FEFECE" filter="url(#fajwxzinpg77e)" height="46.2969" style="stroke: #A80036; stroke-width: 1.5;" width="103" x="56.5" y="453"/><rect fill="#FEFECE" height="10" style="stroke: #A80036; stroke-width: 1.5;" width="15" x="139.5" y="458"/><rect fill="#FEFECE" height="2" style="stroke: #A80036; stroke-width: 1.5;" width="4" x="137.5" y="460"/><rect fill="#FEFECE" height="2" style="stroke: #A80036; stroke-width: 1.5;" width="4" x="137.5" y="464"/><text fill="#000000" font-family="sans-serif" font-size="14" lengthAdjust="spacingAndGlyphs" textLength="63" x="71.5" y="485.9951">Terminal</text><!--MD5=[78bd9a1d3cc189058665f0fe7e8672e3]
entity ContentResponse--><ellipse cx="164" cy="680" fill="#FEFECE" filter="url(#fajwxzinpg77e)" rx="8" ry="8" style="stroke: #A80036; stroke-width: 2.0;"/><text fill="#000000" font-family="sans-serif" font-size="14" lengthAdjust="spacingAndGlyphs" textLength="130" x="99" y="709.9951">ContentResponse</text><!--MD5=[6f5115c1f2a7a0e8865d35f5e29b11e4]
entity Overview--><rect fill="#FEFECE" filter="url(#fajwxzinpg77e)" height="46.2969" style="stroke: #A80036; stroke-width: 1.5;" width="106" x="272" y="657"/><rect fill="#FEFECE" height="10" style="stroke: #A80036; stroke-width: 1.5;" width="15" x="358" y="662"/><rect fill="#FEFECE" height="2" style="stroke: #A80036; stroke-width: 1.5;" width="4" x="356" y="664"/><rect fill="#FEFECE" height="2" style="stroke: #A80036; stroke-width: 1.5;" width="4" x="356" y="668"/><text fill="#000000" font-family="sans-serif" font-size="14" lengthAdjust="spacingAndGlyphs" textLength="66" x="287" y="689.9951">Overview</text><!--MD5=[81aea6514560c46bfe012e5363a56d64]
entity ClusterOverview--><rect fill="#FEFECE" filter="url(#fajwxzinpg77e)" height="46.2969" style="stroke: #A80036; stroke-width: 1.5;" width="157" x="413.5" y="657"/><rect fill="#FEFECE" height="10" style="stroke: #A80036; stroke-width: 1.5;" width="15" x="550.5" y="662"/><rect fill="#FEFECE" height="2" style="stroke: #A80036; stroke-width: 1.5;" width="4" x="548.5" y="664"/><rect fill="#FEFECE" height="2" style="stroke: #A80036; stroke-width: 1.5;" width="4" x="548.5" y="668"/><text fill="#000000" font-family="sans-serif" font-size="14" lengthAdjust="spacingAndGlyphs" textLength="117" x="428.5" y="689.9951">ClusterOverview</text><!--MD5=[8aef30dab84d5e8a523dda50ec8cd586]
entity Workloads--><rect fill="#FEFECE" filter="url(#fajwxzinpg77e)" height="46.2969" style="stroke: #A80036; stroke-width: 1.5;" width="115" x="369.5" y="769"/><rect fill="#FEFECE" height="10" style="stroke: #A80036; stroke-width: 1.5;" width="15" x="464.5" y="774"/><rect fill="#FEFECE" height="2" style="stroke: #A80036; stroke-width: 1.5;" width="4" x="462.5" y="776"/><rect fill="#FEFECE" height="2" style="stroke: #A80036; stroke-width: 1.5;" width="4" x="462.5" y="780"/><text fill="#000000" font-family="sans-serif" font-size="14" lengthAdjust="spacingAndGlyphs" textLength="75" x="384.5" y="801.9951">Workloads</text><!--MD5=[269c60d3caf17151e856838f8d2b78fd]
entity Generators--><rect fill="#FEFECE" filter="url(#fajwxzinpg77e)" height="46.2969" style="stroke: #A80036; stroke-width: 1.5;" width="121" x="211.5" y="769"/><rect fill="#FEFECE" height="10" style="stroke: #A80036; stroke-width: 1.5;" width="15" x="312.5" y="774"/><rect fill="#FEFECE" height="2" style="stroke: #A80036; stroke-width: 1.5;" width="4" x="310.5" y="776"/><rect fill="#FEFECE" height="2" style="stroke: #A80036; stroke-width: 1.5;" width="4" x="310.5" y="780"/><text fill="#000000" font-family="sans-serif" font-size="14" lengthAdjust="spacingAndGlyphs" textLength="81" x="226.5" y="801.9951">Generators</text><!--MD5=[55842e0e440f71764bfda513ee7d47a8]
entity Describers--><rect fill="#FEFECE" filter="url(#fajwxzinpg77e)" height="46.2969" style="stroke: #A80036; stroke-width: 1.5;" width="117" x="216.5" y="881"/><rect fill="#FEFECE" height="10" style="stroke: #A80036; stroke-width: 1.5;" width="15" x="313.5" y="886"/><rect fill="#FEFECE" height="2" style="stroke: #A80036; stroke-width: 1.5;" width="4" x="311.5" y="888"/><rect fill="#FEFECE" height="2" style="stroke: #A80036; stroke-width: 1.5;" width="4" x="311.5" y="892"/><text fill="#000000" font-family="sans-serif" font-size="14" lengthAdjust="spacingAndGlyphs" textLength="77" x="231.5" y="913.9951">Describers</text><!--MD5=[8a17b63bbed2d4f4c6efa9f81431ba58]
entity Printers--><rect fill="#FEFECE" filter="url(#fajwxzinpg77e)" height="46.2969" style="stroke: #A80036; stroke-width: 1.5;" width="97" x="222.5" y="987"/><rect fill="#FEFECE" height="10" style="stroke: #A80036; stroke-width: 1.5;" width="15" x="299.5" y="992"/><rect fill="#FEFECE" height="2" style="stroke: #A80036; stroke-width: 1.5;" width="4" x="297.5" y="994"/><rect fill="#FEFECE" height="2" style="stroke: #A80036; stroke-width: 1.5;" width="4" x="297.5" y="998"/><text fill="#000000" font-family="sans-serif" font-size="14" lengthAdjust="spacingAndGlyphs" textLength="57" x="237.5" y="1019.9951">Printers</text><!--MD5=[1e8e190d5803ea4d43c3b3eb77d0bbdf]
entity ObjectStatus--><rect fill="#FEFECE" filter="url(#fajwxzinpg77e)" height="46.2969" style="stroke: #A80036; stroke-width: 1.5;" width="135" x="201.5" y="1099"/><rect fill="#FEFECE" height="10" style="stroke: #A80036; stroke-width: 1.5;" width="15" x="316.5" y="1104"/><rect fill="#FEFECE" height="2" style="stroke: #A80036; stroke-width: 1.5;" width="4" x="314.5" y="1106"/><rect fill="#FEFECE" height="2" style="stroke: #A80036; stroke-width: 1.5;" width="4" x="314.5" y="1110"/><text fill="#000000" font-family="sans-serif" font-size="14" lengthAdjust="spacingAndGlyphs" textLength="95" x="216.5" y="1131.9951">ObjectStatus</text><!--MD5=[726839cc58536c19c24113678c49ef65]
entity UserClient--><ellipse cx="496" cy="113" fill="#FEFECE" filter="url(#fajwxzinpg77e)" rx="8" ry="8" style="stroke: #A80036; stroke-width: 2.0;"/><text fill="#000000" font-family="sans-serif" font-size="14" lengthAdjust="spacingAndGlyphs" textLength="74" x="459" y="142.9951">UserClient</text><!--MD5=[96f7e1299d4a43069e6ed32352fcac20]
entity HTTP--><rect fill="#FEFECE" filter="url(#fajwxzinpg77e)" height="46.2969" style="stroke: #A80036; stroke-width: 1.5;" width="77" x="338.5" y="90"/><rect fill="#FEFECE" height="10" style="stroke: #A80036; stroke-width: 1.5;" width="15" x="395.5" y="95"/><rect fill="#FEFECE" height="2" style="stroke: #A80036; stroke-width: 1.5;" width="4" x="393.5" y="97"/><rect fill="#FEFECE" height="2" style="stroke: #A80036; stroke-width: 1.5;" width="4" x="393.5" y="101"/><text fill="#000000" font-family="sans-serif" font-size="14" lengthAdjust="spacingAndGlyphs" textLength="37" x="353.5" y="122.9951">HTTP</text><!--MD5=[48558302b29571c46195c4765052fa70]
entity WS--><rect fill="#FEFECE" filter="url(#fajwxzinpg77e)" height="46.2969" style="stroke: #A80036; stroke-width: 1.5;" width="63" x="240.5" y="90"/><rect fill="#FEFECE" height="10" style="stroke: #A80036; stroke-width: 1.5;" width="15" x="283.5" y="95"/><rect fill="#FEFECE" height="2" style="stroke: #A80036; stroke-width: 1.5;" width="4" x="281.5" y="97"/><rect fill="#FEFECE" height="2" style="stroke: #A80036; stroke-width: 1.5;" width="4" x="281.5" y="101"/><text fill="#000000" font-family="sans-serif" font-size="14" lengthAdjust="spacingAndGlyphs" textLength="23" x="255.5" y="122.9951">WS</text><!--MD5=[bca2f9816a4980fcbb00b8673b16121a]
reverse link Direct to Client--><path d="M1093.11,931.605 C1063.74,980.786 1002.34,1083.59 984.784,1112.99 " fill="none" id="Direct&lt;-Client" style="stroke: #A80036; stroke-width: 1.0;"/><polygon fill="#A80036" points="1095.68,927.302,1087.6362,932.9851,1093.1201,931.597,1094.5082,937.0809,1095.68,927.302" style="stroke: #A80036; stroke-width: 1.0;"/><!--MD5=[0045472fcf71d30a9dbc018ebf937788]
reverse link Informer to Client--><path d="M980,932.502 C980,982.024 980,1083.767 980,1112.99 " fill="none" id="Informer&lt;-Client" style="stroke: #A80036; stroke-width: 1.0;"/><polygon fill="#A80036" points="980,927.302,976,936.302,980,932.302,984,936.302,980,927.302" style="stroke: #A80036; stroke-width: 1.0;"/><!--MD5=[64b36508eb16d93db8427a768f63365e]
link GMN921634 to Modules--><path d="M90.8483,584.12 C83.7242,586.365 78.0189,588.979 75,592 C71.6122,595.3901 68.7663,599.2349 66.3807,603.3746 C65.7844,604.4095 65.2167,605.4629 64.6766,606.5321 C64.5416,606.7995 64.4082,607.0678 64.2766,607.3371 C64.2108,607.4717 64.1454,607.6066 64.0805,607.7417 " fill="none" id="GMN921634-Modules" style="stroke: #A80036; stroke-width: 1.0; stroke-dasharray: 7.0,7.0;"/><!--MD5=[fe0d5e4b10f7065f5bc6ace713de3bbe]
link UserClient to Handlers--><path d="M496,122.19 C496,144.16 496,204.51 496,231.57 " fill="none" id="UserClient-&gt;Handlers" style="stroke: #A80036; stroke-width: 1.0;"/><polygon fill="#A80036" points="496,236.81,500,227.81,496,231.81,492,227.81,496,236.81" style="stroke: #A80036; stroke-width: 1.0;"/><!--MD5=[4cc9d4761a5cbcefe1000d8e4fb5abe6]
link Handlers to SetState--><path d="M486.853,250.706 C457.748,262.537 364.748,300.639 289,335 C273.853,341.871 256.726,350.211 245.035,355.992 " fill="none" id="Handlers-&gt;SetState" style="stroke: #A80036; stroke-width: 1.0;"/><polygon fill="#A80036" points="240.378,358.302,250.2181,357.8875,244.8575,356.0808,246.6642,350.7202,240.378,358.302" style="stroke: #A80036; stroke-width: 1.0;"/><!--MD5=[9e98eb3faf11c2e49d40c0a6732a8b5d]
link Describers to Client--><path d="M333.594,922.952 C485.555,969.51 886.07,1092.221 966.004,1116.712 " fill="none" id="Describers-&gt;Client" style="stroke: #A80036; stroke-width: 1.0;"/><polygon fill="#A80036" points="970.799,1118.181,963.3648,1111.7209,966.0182,1116.7169,961.0222,1119.3703,970.799,1118.181" style="stroke: #A80036; stroke-width: 1.0;"/><!--MD5=[293299e727365958d903db09adae4c03]
reverse link Printers to ObjectStatus--><path d="M270.503,1038.353 C270.164,1056.985 269.721,1081.337 269.404,1098.773 " fill="none" id="Printers&lt;-ObjectStatus" style="stroke: #A80036; stroke-width: 1.0;"/><polygon fill="#A80036" points="270.595,1033.26,266.4311,1042.1853,270.5036,1038.2592,274.4297,1042.3316,270.595,1033.26" style="stroke: #A80036; stroke-width: 1.0;"/><!--MD5=[a94ffab0b4824a6ea350e692c62cb196]
reverse link Describers to Printers--><path d="M273.954,932.192 C273.298,949.262 272.462,970.989 271.847,986.976 " fill="none" id="Describers&lt;-Printers" style="stroke: #A80036; stroke-width: 1.0;"/><polygon fill="#A80036" points="274.152,927.056,269.8103,935.8962,273.9605,932.0523,277.8045,936.2026,274.152,927.056" style="stroke: #A80036; stroke-width: 1.0;"/><!--MD5=[abf5b2aec71a5bbb97681ae02ff10118]
link Describers to GetState--><path d="M333.665,902.372 C403.158,898.444 518.153,881.438 587,815 C632.008,771.567 630,743.547 630,681 C630,475 630,475 630,475 C630,393.29 639.711,295.462 643.506,260.353 " fill="none" id="Describers-&gt;GetState" style="stroke: #A80036; stroke-width: 1.0;"/><polygon fill="#A80036" points="644.062,255.269,639.106,263.7801,643.5177,260.2393,647.0585,264.651,644.062,255.269" style="stroke: #A80036; stroke-width: 1.0;"/><!--MD5=[7340f4d1ba89ae92df6187ae82778c0f]
reverse link Generators to Describers--><path d="M272.746,820.353 C273.254,838.985 273.918,863.337 274.394,880.773 " fill="none" id="Generators&lt;-Describers" style="stroke: #A80036; stroke-width: 1.0;"/><polygon fill="#A80036" points="272.607,815.26,268.8527,824.3652,272.7427,820.2582,276.8498,824.1481,272.607,815.26" style="stroke: #A80036; stroke-width: 1.0;"/><!--MD5=[148024771b281161eb8da34dca13d605]
reverse link ContentResponse to Generators--><path d="M175.875,693.095 C193.711,711.261 227.71,745.89 250.118,768.713 " fill="none" id="ContentResponse&lt;-Generators" style="stroke: #A80036; stroke-width: 1.0;"/><polygon fill="#A80036" points="172.118,689.268,175.5698,698.4922,175.6212,692.8355,181.2779,692.887,172.118,689.268" style="stroke: #A80036; stroke-width: 1.0;"/><!--MD5=[77e88b1ff32ab50398e4ea67a50c4625]
link Handlers to ContentResponse--><path d="M508.246,258.97 C523.502,274.767 548.909,304.196 560,335 C597.55,439.287 651.391,504.65 574,584 C561.583,596.731 270.402,585.129 254,592 C216.731,607.613 186.122,646.442 172.159,666.526 " fill="none" id="Handlers-ContentResponse" style="stroke: #A80036; stroke-width: 1.0;"/><polygon fill="#A80036" points="169.281,670.743,177.6582,665.564,172.0995,666.6131,171.0504,661.0544,169.281,670.743" style="stroke: #A80036; stroke-width: 1.0;"/><polygon fill="#A80036" points="504.601,255.255,508.0491,264.4805,508.1028,258.8239,513.7594,258.8777,504.601,255.255" style="stroke: #A80036; stroke-width: 1.0;"/><!--MD5=[2b0222030ae03abcb38378e51ef71d5c]
link Action to Plugin--><!--MD5=[554e840b9a25e893323d4377c01ad75f]
link Plugin to Module--><!--MD5=[970f9329e702be89e1464fc8d2855e5b]
link Action to Content--><!--MD5=[cd0be2f74ea46e128dc9d8bddde33cb4]
link Content to Namespace--><!--MD5=[c369cc485a6d2ed98e40cec8c855fe9e]
link Namespace to Filter--><!--MD5=[c62ab21c6f3a02bab3fb28b690ec6cfa]
link Content to Terminal--><!--MD5=[b807e7851285a020d58396adb553ed53]
link Overview to ClusterOverview--><!--MD5=[25c5ea74e8ee674db54bc83cf168670d]
link Overview to Workloads--><!--MD5=[f96adc0e1c7011f29eea9e8764ecd7c1]
@startuml
package "Backend" {

    database "ObjectStore" {
        interface Client
        [Direct] <- - - Client
        [Informer] <- - - Client
        note as N2
            Uses informers but falls back
            when unable to access <i>Watch</i> verb.
        end note
    }

    package "State Managers" as Managers {
        interface "WS/HTTP Handlers" as Handlers
        interface SetState
        interface GetState
        [Action]
        [Plugin]
        [Module]
        [Content]
        [Namespace]
        [Filter]
        [Terminal]
    }

    package "Modules" {
        interface ContentResponse
        [Overview]
        [ClusterOverview]
        [Workloads]

        package "Response" {
            [Generators]
            [Describers]
            [Printers]
            [ObjectStatus]
        }
    }
    note top of Modules
        These are the default views of Octant
    end note

    package WebHandlers {
        interface UserClient
        [HTTP]
        [WS]
    }
}

UserClient - -> Handlers
Handlers - -> SetState

Describers - - -> Client

Printers <- - ObjectStatus
Describers <- - Printers
Describers - -> GetState
Generators <- - Describers
ContentResponse <- - Generators
Handlers <- - - - -> ContentResponse
@enduml

PlantUML version 1.2020.16beta3(Unknown compile time)
(GPL source distribution)
Java Runtime: Java(TM) SE Runtime Environment
JVM: Java HotSpot(TM) 64-Bit Server VM
Default Encoding: UTF-8
Language: en
Country: US
--></g></svg>